<svg id="Layer_1" data-name="Layer 1" xmlns="http://www.w3.org/2000/svg" viewBox="0 0 281 243"><defs><style>.cls-1{fill:#fff;}</style></defs><title>kk-logo-vert-white-neg-rgb</title><path class="cls-1" d="M108.16,17.09V73.77a2.14,2.14,0,0,1-1.75,2.11c-7.22,1.37-34.43,5-34.43-18V17.35c0-22.3,36.18-22.8,36.18-.26"/><path class="cls-1" d="M157.67,56.16v56.68a2.14,2.14,0,0,1-1.75,2.11c-7.23,1.38-34.44,5-34.44-18V56.42c0-22.3,36.19-22.8,36.19-.26"/><path class="cls-1" d="M207.17,90.46v56.68a2.14,2.14,0,0,1-1.74,2.11c-7.23,1.37-34.44,5-34.44-18V90.72c0-22.3,36.18-22.8,36.18-.26"/><path class="cls-1" d="M22.22,216.94l19.6,25.15H28.07l-16.39-22v22H.13V192.21H11.68v22.16l16.46-22.16H41.82Z"/><path class="cls-1" d="M41.39,224.92c0-10.47,7.27-18.1,19.1-18.1s19,7.63,19,18.1-7.27,18.1-19,18.1S41.39,235.4,41.39,224.92Zm27.29,0c0-5.2-3.06-8.91-8.19-8.91s-8.2,3.71-8.2,8.91,3,8.91,8.2,8.91S68.68,230.12,68.68,224.92Z"/><path class="cls-1" d="M85.78,207.75h10.9v5c2-3.85,5.92-5.92,11.12-5.92,8.33,0,12.54,4.7,12.54,14v21.23h-11V224.42c0-5.77-1.64-8.41-6.06-8.41s-6.63,2.85-6.63,8.13v18H85.78Z"/><path class="cls-1" d="M150.19,233.4v8.69a42,42,0,0,1-7.27.57c-5.13,0-12.18-1.14-12.18-12.61V216.37h-5.42v-8.62h5.42V197.56h10.9v10.19h7.77v8.62h-7.77v11.4c0,5.06,2.07,5.84,4.78,5.84A31.35,31.35,0,0,0,150.19,233.4Z"/><path class="cls-1" d="M190,227.91H164.58c.22,4.49,3.21,6.91,8.06,6.91,3.34,0,5.48-.92,6.41-3.06h10.69c-1.07,6.77-8,11.26-17.1,11.26-11.69,0-18.89-6.63-18.89-18.1,0-11.26,7.34-18.1,18.53-18.1,10.69,0,18,6.63,18,16.32A36.08,36.08,0,0,1,190,227.91Zm-10.47-6.77c-.07-4.56-2.64-7-7.27-7s-7.56,2.78-7.63,7Z"/><path class="cls-1" d="M196.5,207.75h10.91v5c2-3.85,5.91-5.92,11.11-5.92,8.34,0,12.54,4.7,12.54,14v21.23h-11V224.42c0-5.77-1.64-8.41-6.06-8.41s-6.62,2.85-6.62,8.13v18H196.5Z"/><path class="cls-1" d="M260.92,233.4v8.69a42.13,42.13,0,0,1-7.27.57c-5.13,0-12.19-1.14-12.19-12.61V216.37h-5.41v-8.62h5.41V197.56h10.91v10.19h7.76v8.62h-7.76v11.4c0,5.06,2.06,5.84,4.77,5.84A31.53,31.53,0,0,0,260.92,233.4Z"/><path class="cls-1" d="M266.76,235.82a7.06,7.06,0,1,1,7.05,7A7,7,0,0,1,266.76,235.82Z"/></svg>