<svg id="Layer_1" data-name="Layer 1" xmlns="http://www.w3.org/2000/svg" viewBox="0 0 380 342"><defs><style>.cls-1{fill:#f05a22;}.cls-2{fill:none;}</style></defs><title>kk-logo-vert-color-pos-sz-rgb</title><path class="cls-1" d="M157.66,67.09v56.68a2.14,2.14,0,0,1-1.75,2.11c-7.22,1.37-34.43,5-34.43-18V67.35c0-22.3,36.18-22.8,36.18-.26"/><path class="cls-1" d="M207.17,106.16v56.68a2.14,2.14,0,0,1-1.75,2.11c-7.23,1.38-34.44,5-34.44-18V106.42c0-22.3,36.19-22.8,36.19-.26"/><path class="cls-1" d="M256.67,140.46v56.68a2.14,2.14,0,0,1-1.74,2.11c-7.23,1.37-34.44,5-34.44-18V140.72c0-22.3,36.18-22.8,36.18-.26"/><path d="M71.72,266.94l19.6,25.15H77.57l-16.39-22v22H49.63V242.21H61.18v22.16l16.46-22.16H91.32Z"/><path d="M90.89,274.92c0-10.47,7.27-18.1,19.1-18.1s19,7.63,19,18.1S121.74,293,110,293,90.89,285.4,90.89,274.92Zm27.29,0c0-5.2-3.06-8.91-8.19-8.91s-8.2,3.71-8.2,8.91,3,8.91,8.2,8.91S118.18,280.12,118.18,274.92Z"/><path d="M135.28,257.75h10.9v5c2-3.85,5.92-5.92,11.12-5.92,8.33,0,12.54,4.7,12.54,14v21.23h-11V274.42c0-5.77-1.64-8.41-6.06-8.41s-6.63,2.85-6.63,8.13v17.95h-10.9Z"/><path d="M199.69,283.4v8.69a42,42,0,0,1-7.27.57c-5.13,0-12.18-1.14-12.18-12.61V266.37h-5.42v-8.62h5.42V247.56h10.9v10.19h7.77v8.62h-7.77v11.4c0,5.06,2.07,5.84,4.78,5.84A31.35,31.35,0,0,0,199.69,283.4Z"/><path d="M239.45,277.91H214.08c.22,4.49,3.21,6.91,8.06,6.91,3.34,0,5.48-.92,6.41-3.06h10.69c-1.07,6.77-8,11.26-17.1,11.26-11.69,0-18.89-6.63-18.89-18.1,0-11.26,7.34-18.1,18.53-18.1,10.69,0,18,6.63,18,16.32A36.08,36.08,0,0,1,239.45,277.91ZM229,271.14c-.07-4.56-2.64-7-7.27-7s-7.56,2.78-7.63,7Z"/><path d="M246,257.75h10.91v5c2-3.85,5.91-5.92,11.11-5.92,8.34,0,12.54,4.7,12.54,14v21.23h-11V274.42c0-5.77-1.64-8.41-6.06-8.41s-6.62,2.85-6.62,8.13v17.95H246Z"/><path d="M310.42,283.4v8.69a42.13,42.13,0,0,1-7.27.57c-5.13,0-12.19-1.14-12.19-12.61V266.37h-5.41v-8.62H291V247.56h10.91v10.19h7.76v8.62h-7.76v11.4c0,5.06,2.06,5.84,4.77,5.84A31.53,31.53,0,0,0,310.42,283.4Z"/><path class="cls-1" d="M316.26,285.82a7.06,7.06,0,1,1,7.05,7A7,7,0,0,1,316.26,285.82Z"/><rect class="cls-2" width="380" height="342"/></svg>