<svg id="Layer_1" data-name="Layer 1" xmlns="http://www.w3.org/2000/svg" viewBox="0 0 128 128"><defs><style>.cls-1{fill:#f05a22;}.cls-2{fill:#fff;}</style></defs><title>kk-logo-short-color-pos-rgb-128px</title><circle class="cls-1" cx="64" cy="64" r="64"/><path class="cls-2" d="M48.34,35V63.2a1.07,1.07,0,0,1-.87,1.06c-3.6.68-17.16,2.5-17.16-9V35.09c0-11.12,18-11.37,18-.13"/><path class="cls-2" d="M73,54.43V82.68a1.07,1.07,0,0,1-.87,1c-3.61.69-17.17,2.51-17.17-9V54.56c0-11.12,18-11.36,18-.13"/><path class="cls-2" d="M97.69,71.52V99.77a1.07,1.07,0,0,1-.87,1.06c-3.6.68-17.16,2.5-17.16-9V71.65c0-11.11,18-11.36,18-.13"/></svg>