<svg id="Layer_1" data-name="Layer 1" xmlns="http://www.w3.org/2000/svg" viewBox="0 0 32 32"><defs><style>.cls-1{fill:#fff;}</style></defs><title>kk-logo-short-black-pos-rgb-32px</title><circle cx="16" cy="16" r="16"/><path class="cls-1" d="M12,9.84v6.27a.24.24,0,0,1-.19.23c-.8.15-3.81.56-3.81-2V9.87c0-2.46,4-2.52,4,0"/><path class="cls-1" d="M18,13.84v6.27a.24.24,0,0,1-.19.23c-.8.16-3.81.56-3.81-2V13.87c0-2.46,4-2.52,4,0"/><path class="cls-1" d="M24,17.84v6.27a.24.24,0,0,1-.19.23c-.8.16-3.81.56-3.81-2V17.87c0-2.46,4-2.52,4,0"/></svg>