<svg id="Layer_1" data-name="Layer 1" xmlns="http://www.w3.org/2000/svg" viewBox="0 0 256 256"><defs><style>.cls-1{fill:#fff;}</style></defs><title>kk-logo-short-black-pos-rgb-128px</title><circle cx="128" cy="128" r="128"/><path class="cls-1" d="M96.69,69.91v56.5A2.15,2.15,0,0,1,95,128.52c-7.21,1.37-34.33,5-34.33-17.91V70.17c0-22.23,36.07-22.73,36.07-.26"/><path class="cls-1" d="M146,108.86v56.5a2.14,2.14,0,0,1-1.74,2.11c-7.2,1.37-34.32,5-34.32-17.91V109.12c0-22.23,36.06-22.73,36.06-.26"/><path class="cls-1" d="M195.38,143.05v56.5a2.12,2.12,0,0,1-1.74,2.1c-7.2,1.37-34.33,5-34.33-17.9V143.31c0-22.23,36.07-22.73,36.07-.26"/></svg>