<svg id="Layer_1" data-name="Layer 1" xmlns="http://www.w3.org/2000/svg" viewBox="0 0 500 500"><defs><style>.cls-1{fill:#fff;}</style></defs><title>kk-logo-short-bw-white-rgb-256px</title><path class="cls-1" d="M250,0C111.93,0,0,111.93,0,250S111.93,500,250,500,500,388.07,500,250,388.07,0,250,0ZM188.84,246.89a4.18,4.18,0,0,1-3.4,4.12c-14.07,2.67-67,9.78-67-35v-79c0-43.42,70.45-44.39,70.45-.5ZM285.22,323a4.17,4.17,0,0,1-3.39,4.11c-14.08,2.68-67,9.78-67-35v-79c0-43.41,70.44-44.39,70.44-.5Zm96.39,66.77a4.19,4.19,0,0,1-3.4,4.12c-14.07,2.67-67,9.77-67-35v-79c0-43.42,70.45-44.39,70.45-.51Z"/></svg>