<svg id="Layer_1" data-name="Layer 1" xmlns="http://www.w3.org/2000/svg" viewBox="0 0 128 128"><defs><style>.cls-1{fill:#fff;}</style></defs><title>kk-logo-short-white-neg-rgb-500px</title><path class="cls-1" d="M64,0a64,64,0,1,0,64,64A64,64,0,0,0,64,0ZM48.34,63.2a1.07,1.07,0,0,1-.87,1.06c-3.6.68-17.16,2.5-17.16-9V35.09c0-11.12,18-11.37,18-.13ZM73,82.68a1.07,1.07,0,0,1-.87,1c-3.61.69-17.17,2.51-17.17-9V54.56c0-11.12,18-11.36,18-.13ZM97.69,99.77a1.07,1.07,0,0,1-.87,1.06c-3.6.68-17.16,2.5-17.16-9V71.65c0-11.11,18-11.36,18-.13Z"/></svg>