<svg id="Layer_1" data-name="Layer 1" xmlns="http://www.w3.org/2000/svg" viewBox="0 0 96 96"><defs><style>.cls-1{fill:#fff;}</style></defs><title>kk-logo-short-black-pos-rgb-96px</title><circle cx="48" cy="48" r="48"/><path class="cls-1" d="M36.26,26.22V47.4a.8.8,0,0,1-.66.79c-2.7.52-12.87,1.88-12.87-6.71V26.31c0-8.33,13.53-8.52,13.53-.09"/><path class="cls-1" d="M54.76,40.82V62a.8.8,0,0,1-.65.79c-2.7.51-12.87,1.88-12.87-6.71V40.92c0-8.34,13.52-8.52,13.52-.1"/><path class="cls-1" d="M73.27,53.64V74.83a.8.8,0,0,1-.65.79c-2.71.51-12.88,1.88-12.88-6.71V53.74c0-8.34,13.53-8.52,13.53-.1"/></svg>