<svg id="Layer_1" data-name="Layer 1" xmlns="http://www.w3.org/2000/svg" viewBox="0 0 256 256"><defs><style>.cls-1{fill:#fff;}</style></defs><title>kk-logo-short-bw-white-rgb-128px</title><path class="cls-1" d="M128,0A128,128,0,1,0,256,128,128,128,0,0,0,128,0ZM96.69,126.41A2.15,2.15,0,0,1,95,128.52c-7.21,1.37-34.33,5-34.33-17.91V70.17c0-22.23,36.07-22.73,36.07-.26Zm49.34,39a2.14,2.14,0,0,1-1.74,2.11c-7.2,1.37-34.32,5-34.32-17.91V109.12c0-22.23,36.06-22.73,36.06-.26Zm49.35,34.19a2.12,2.12,0,0,1-1.74,2.1c-7.2,1.37-34.33,5-34.33-17.9V143.31c0-22.23,36.07-22.73,36.07-.26Z"/></svg>