<svg id="Layer_1" data-name="Layer 1" xmlns="http://www.w3.org/2000/svg" viewBox="0 0 500 500"><defs><style>.cls-1{fill:#f05a22;}.cls-2{fill:#fff;}</style></defs><title>kk-logo-short-color-pos-rgb-500px</title><circle class="cls-1" cx="250" cy="250" r="250"/><path class="cls-2" d="M188.84,136.55V246.89a4.18,4.18,0,0,1-3.4,4.12c-14.07,2.67-67,9.78-67-35v-79c0-43.42,70.45-44.39,70.45-.5"/><path class="cls-2" d="M285.22,212.62V323a4.17,4.17,0,0,1-3.39,4.11c-14.08,2.68-67,9.78-67-35v-79c0-43.41,70.44-44.39,70.44-.5"/><path class="cls-2" d="M381.61,279.39V389.74a4.19,4.19,0,0,1-3.4,4.12c-14.07,2.67-67,9.77-67-35v-79c0-43.42,70.45-44.39,70.45-.51"/></svg>