<svg id="Layer_1" data-name="Layer 1" xmlns="http://www.w3.org/2000/svg" viewBox="0 0 48 48"><defs><style>.cls-1{fill:#fff;}</style></defs><title>kk-logo-short-black-pos-rgb-48px</title><circle cx="24" cy="24" r="24"/><path class="cls-1" d="M18,14.77v9.39a.35.35,0,0,1-.29.35c-1.2.23-5.71.83-5.71-3V14.81c0-3.7,6-3.78,6,0"/><path class="cls-1" d="M27,20.77v9.4a.36.36,0,0,1-.29.35c-1.2.22-5.71.83-5.71-3V20.81c0-3.7,6-3.78,6,0"/><path class="cls-1" d="M36,26.77v9.4a.36.36,0,0,1-.29.35c-1.2.22-5.71.83-5.71-3V26.81c0-3.7,6-3.78,6,0"/></svg>