<svg id="Layer_1" data-name="Layer 1" xmlns="http://www.w3.org/2000/svg" viewBox="0 0 16 16"><defs><style>.cls-1{fill:#fff;}</style></defs><title>kk-logo-short-black-pos-rgb-16px</title><circle cx="8" cy="8" r="8"/><path class="cls-1" d="M6,4.92V8.05a.12.12,0,0,1-.1.12c-.4.08-1.9.28-1.9-1V4.94a1,1,0,0,1,2,0"/><path class="cls-1" d="M9,6.92v3.14a.12.12,0,0,1-.1.11c-.4.08-1.9.28-1.9-1V6.94a1,1,0,0,1,2,0"/><path class="cls-1" d="M12,8.92v3.14a.12.12,0,0,1-.1.11c-.4.08-1.9.28-1.9-1V8.94a1,1,0,0,1,2,0"/></svg>